<?xml version="1.0" encoding="utf-8"?>
<!-- Svg Vector Icons : http://www.onlinewebfonts.com/icon -->
<!DOCTYPE svg PUBLIC "-//W3C//DTD SVG 1.1//EN" "http://www.w3.org/Graphics/SVG/1.1/DTD/svg11.dtd">
<svg version="1.1" xmlns="http://www.w3.org/2000/svg" xmlns:xlink="http://www.w3.org/1999/xlink" x="0px" y="0px" viewBox="0 0 1000 1000" enable-background="new 0 0 1000 1000" xml:space="preserve">
<metadata> Svg Vector Icons : http://www.onlinewebfonts.com/icon </metadata>
<g><g transform="translate(0.000000,511.000000) scale(0.100000,-0.100000)"><path d="M2160,2303.3c-423.4-63.6-886.3-285.2-1184.7-572.6c-155.8-149.2-355.4-190.9-561.6-118.5c-111.9,39.5-195.3,26.3-254.5-39.5c-63.6-68-74.6-142.6-39.5-228.2c35.1-81.2,149.2-144.8,311.5-171.1l89.9-13.2l-61.4-125C293,695.2,216.2,263,257.9-107.8c59.2-515.6,280.8-963.1,660.4-1340.5c300.6-298.4,616.5-482.6,1009.2-587.9c285.2-74.6,774.4-79,1037.7-8.8c430,116.3,774.4,322.5,1081.6,645c318.1,333.5,517.8,721.8,592.3,1147.4c41.7,245.7,46.1,871,6.6,855.6c-19.7-6.6-41.7,32.9-65.8,116.3c-19.7,70.2-43.9,140.4-50.5,158c-8.8,28.5,43.9,32.9,355.4,32.9c204,0,399.3,6.6,436.6,15.4l70.2,15.4L5328,743.5c-201.8-623.1-96.5-1292.2,294-1873.6c109.7-164.5,425.6-480.4,588-585.8c899.5-592.3,1976.7-498,2744.5,241.3c364.2,351,572.6,732.8,664.7,1217.6c41.7,226,46.1,875.4,4.4,860c-17.5-8.8-39.5,37.3-68,131.6c-21.9,79-70.2,204-103.1,276.4c-35.1,72.4-63.6,138.2-63.6,142.6c0,4.4,28.5,8.8,63.6,8.8c103.1,0,342.2,83.4,390.5,136c120.7,129.4,37.3,346.6-131.6,346.6c-41.7,0-114.1-15.4-160.2-35.1c-59.2-24.1-122.9-32.9-217.2-24.1c-223.8,19.8-320.3,59.2-465.1,190.9c-403.7,364.2-985,570.4-1531.3,539.7c-552.9-28.5-1013.6-236.9-1448-651.6c-155.8-147-228.1-199.6-329.1-236.9c-261.1-98.7-386.1-120.7-658.2-118.5c-219.4,0-296.2,11-458.5,59.2c-195.3,59.2-197.4,61.4-441,294c-274.2,263.3-493.6,408.1-798.6,522.1C2877.4,2307.7,2489.1,2351.6,2160,2303.3z M2927.9,1842.6c627.5-160.1,1090.4-620.9,1265.9-1263.7c37.3-140.4,46.1-232.5,46.1-480.5c0-267.7-8.8-333.5-59.2-500.2C3994.1-1027,3553.1-1457,2927.9-1625.9c-247.9-68-693.3-68-943.4,0c-548.5,147-987.2,535.3-1191.3,1055.2c-85.6,215-118.5,414.6-118.5,680.1c0,524.3,160.2,919.2,520,1285.6c250.1,252.3,614.3,434.4,987.2,491.4C2372.8,1915,2726,1895.2,2927.9,1842.6z M7907.9,1842.6c541.9-138.2,980.7-520,1186.9-1026.7c105.3-258.9,129.4-392.7,127.3-706.4c-2.2-313.7-26.3-458.5-127.3-706.4c-204-504.6-638.4-881.9-1186.9-1028.9c-254.5-68-673.5-68-932.4,0C6381-1470.2,5940-1059.9,5749.2-491.7c-276.4,824.9,43.9,1726.6,761.3,2147.8c175.5,103.1,445.4,199.6,651.6,230.4C7352.9,1915,7706.1,1895.2,7907.9,1842.6z"/><path d="M8559.5,61.2c-32.9-17.5-92.1-114.1-177.7-289.6c-105.3-217.2-157.9-298.4-296.2-447.6c-142.6-153.6-166.7-190.9-166.7-258.9c0-100.9,30.7-153.6,111.9-197.5c103.1-52.7,175.5-21.9,331.3,140.4c166.7,175.5,298.3,364.2,401.5,579.2c127.2,263.3,127.2,381.7,4.4,456.3C8688.9,91.9,8634.1,96.3,8559.5,61.2z"/></g></g>
</svg>